<svg width="132" height="43" viewBox="0 0 132 43" fill="none" xmlns="http://www.w3.org/2000/svg">
<path d="M59.2501 8.93383C59.2501 10.9352 57.7507 12.027 55.6114 12.027H48.4988V0H55.6114C57.7507 0 59.2501 1.0913 59.2501 3.09271V8.93383ZM51.3696 9.66137H55.2277C55.9588 9.66137 56.3797 9.33374 56.3797 8.51538V3.51116C56.3797 2.6928 55.9588 2.36518 55.2277 2.36518H51.3696V9.66137Z" fill="black"/>
<path d="M98.4692 2.36523V9.7161H94.9953C94.3736 9.7161 94.1724 9.44316 94.1724 8.7337V2.36523H91.4115V9.40655C91.4115 11.0989 92.856 12.0266 94.6661 12.0266H94.8621H101.23V2.36523H98.4692Z" fill="black"/>
<path d="M85.8757 2.36523H85.3536H73.3511V12.0266H76.112V4.67573H79.8602V12.0266H82.6211V4.67573H85.3536H85.5464C86.1681 4.67573 86.3693 4.94914 86.3693 5.6586V12.0266H89.1302V4.98528C89.1302 3.29296 87.6862 2.36523 85.8757 2.36523Z" fill="black"/>
<path d="M67.1157 2.36523H62.2704V4.60344H67.4081C67.9753 4.60344 68.0484 4.98574 68.0484 5.40419V5.73181H64.1904C62.3622 5.73181 61.4294 6.85972 61.4294 8.55159V9.2249C61.4294 10.9172 62.4171 12.0271 64.1904 12.0271H70.7908V5.53116C70.7908 3.34764 69.438 2.36523 67.1157 2.36523ZM68.0484 9.7161H64.7571C64.1354 9.7161 63.9343 9.44316 63.9343 8.7337V8.53351C63.9343 7.81525 64.3003 7.55065 65.2144 7.55065H68.0484V9.7161Z" fill="black"/>
<path d="M48.4988 17.5352H51.3696V27.1965H57.4033V29.5622H48.4988V17.5352Z" fill="black"/>
<path d="M68.7218 26.9417C68.7218 28.634 67.6066 29.5618 65.7965 29.5618H61.9748C60.1647 29.5618 59.0494 28.634 59.0494 26.9417V22.5204C59.0494 20.8281 60.1647 19.9004 61.9748 19.9004H65.7965C67.6066 19.9004 68.7218 20.8281 68.7218 22.5204V26.9417ZM62.6151 27.2508H65.1562C65.7779 27.2508 65.979 26.9779 65.979 26.2684V23.1933C65.979 22.4838 65.7779 22.2109 65.1562 22.2109H62.6151C61.9934 22.2109 61.7922 22.4838 61.7922 23.1933V26.2684C61.7922 26.9779 61.9934 27.2508 62.6151 27.2508Z" fill="black"/>
<path d="M85.5883 18.6529H83.6674C83.3344 18.6529 83.0648 18.3846 83.0648 18.0533V16.8535C83.0648 16.5227 83.3344 16.2539 83.6674 16.2539H85.5883C85.9212 16.2539 86.1908 16.5227 86.1908 16.8535V18.0533C86.1908 18.3846 85.9212 18.6529 85.5883 18.6529Z" fill="black"/>
<path d="M86.0084 19.9004H83.2474V29.5618H86.0084V19.9004Z" fill="black"/>
<path d="M110.116 18.6529H108.196C107.863 18.6529 107.593 18.3846 107.593 18.0533V16.8535C107.593 16.5227 107.863 16.2539 108.196 16.2539H110.116C110.449 16.2539 110.719 16.5227 110.719 16.8535V18.0533C110.719 18.3846 110.449 18.6529 110.116 18.6529Z" fill="black"/>
<path d="M110.536 19.9004H107.776V29.5618H110.536V19.9004Z" fill="black"/>
<path d="M101.979 22.2108V26.2683C101.979 26.9782 102.18 27.2507 102.802 27.2507H105.399V29.5617H102.473C100.663 29.5617 99.2184 28.634 99.2184 26.9416V17.6621H101.979V19.9003H105.198V22.2108H101.979V22.2108Z" fill="black"/>
<path d="M116.696 27.2508H121.267V29.5618H116.056C114.227 29.5618 113.113 28.634 113.113 26.9417V22.5204C113.113 20.8281 114.227 19.9004 116.056 19.9004H121.267V22.2109H116.696C116.074 22.2109 115.873 22.4838 115.873 23.1933V26.2684C115.873 26.9779 116.074 27.2508 116.696 27.2508Z" fill="black"/>
<path d="M129.44 26.2322C129.44 26.2322 126.929 25.6896 125.546 25.3768C124.028 25.0339 123.279 24.2489 123.279 23.1571V22.5204C123.279 20.8281 124.759 19.9004 126.588 19.9004H131.671V22.2109H126.661C126.04 22.2109 125.838 22.3383 125.838 22.7206V23.0844C125.838 23.0844 128.581 23.741 129.495 23.9579C131.195 24.3611 132 25.0858 132 26.2503V26.9417C132 28.634 130.519 29.5618 128.691 29.5618H123.461V27.2513H128.617C129.239 27.2513 129.44 27.1238 129.44 26.7415V26.2322Z" fill="black"/>
<path d="M94.5473 26.2322C94.5473 26.2322 92.0365 25.6896 90.653 25.3768C89.1349 25.0339 88.3856 24.2489 88.3856 23.1571V22.5204C88.3856 20.8281 89.8664 19.9004 91.6951 19.9004H96.7783V22.2109H91.7682C91.1466 22.2109 90.9454 22.3383 90.9454 22.7206V23.0844L94.6023 23.9579C96.3024 24.3583 97.1071 25.0858 97.1071 26.2503V26.9417C97.1071 28.634 95.6263 29.5618 93.7976 29.5618H88.5682V27.2513H93.7245C94.3462 27.2513 94.5473 27.1238 94.5473 26.7415V26.2322Z" fill="black"/>
<path d="M73.86 19.9004C72.0313 19.9004 70.916 20.8281 70.916 22.5204V26.9417C70.916 28.634 72.0313 29.5618 73.86 29.5618H74.5035H77.7911V30.115C77.7911 30.8245 77.5718 30.7698 76.9501 30.7698H71.4278V32.99H77.2789C79.272 32.99 80.5334 32.0071 80.5334 30.0057V19.9004H73.86ZM77.7725 27.2508H74.5589C73.9373 27.2508 73.7361 26.9779 73.7361 26.2684V23.1933C73.7361 22.5204 73.9186 22.247 74.4672 22.2109H77.7725V27.2508Z" fill="black"/>
<path d="M33.549 16.1248C32.919 16.1248 32.4081 15.6165 32.4081 14.9895V0H27.0068V15.6675C27.0068 18.8885 29.6309 21.4998 32.8677 21.4998H40.5098V16.1248H33.549Z" fill="#CBD400"/>
<path d="M24.306 24.1875V0H18.9047V24.1875H5.86089C2.62404 24.1875 0 26.7987 0 30.0202V37.1677C0 40.3888 2.62404 43 5.86089 43H18.4446C21.6819 43 24.306 40.3888 24.306 37.1677V29.5624H40.5098V24.1875H24.306ZM18.9047 36.4897C18.9047 37.1167 18.3939 37.6251 17.7638 37.6251H6.54216C5.91212 37.6251 5.40128 37.1167 5.40128 36.4897V30.6977C5.40128 30.0708 5.91212 29.5624 6.54216 29.5624H18.9047V36.4897V36.4897Z" fill="#7EB827"/>
</svg>
